<svg width="72" height="21" viewBox="0 0 72 21" fill="none" xmlns="http://www.w3.org/2000/svg">
<path d="M21.0236 2.1C21.0236 0.93912 20.0818 0 18.9213 0H10.5118H2.10236C0.941858 0 0 0.93912 0 2.1V18.9C0 20.0609 0.941858 21 2.10236 21H10.5118H18.9213C20.0818 21 21.0236 20.0609 21.0236 18.9V2.1Z" fill="#FEDE34"/>
<path fill-rule="evenodd" clip-rule="evenodd" d="M12.9976 11.061L12.9909 11.1265C12.9304 11.6406 12.8093 12.1244 12.6293 12.5763L12.599 12.6486L12.7739 12.7897L13.7343 11.1718H13.4248C13.2718 11.1735 13.1271 11.1332 12.9976 11.061ZM7.46253 4.46191C9.02165 4.46191 10.3587 4.98271 11.3292 5.96719C11.7497 6.39391 12.0844 6.89119 12.3282 7.44559C12.4409 7.64551 12.5418 7.85551 12.6293 8.07391C12.7857 7.78663 13.0885 7.58671 13.4282 7.58671H17.9626C18.3107 7.58671 18.6185 7.76143 18.7884 8.05543C18.9549 8.35111 18.9515 8.71231 18.78 9.00463L17.3672 11.4222H17.9323C18.4486 11.4222 18.8523 11.822 18.8523 12.331V14.0581C18.8523 14.547 18.4587 14.9468 17.9693 14.9653H17.9323H13.1524C13.0716 14.967 12.9909 14.9569 12.9152 14.9384L11.5377 16.3026L11.4957 16.3345C11.2855 16.4924 11.082 16.5327 10.9407 16.5361H10.9155C10.759 16.5361 10.4597 16.4924 10.204 16.1934L10.1922 16.1782L9.58508 15.4323C9.03342 15.6138 8.43803 15.7095 7.81237 15.7213H7.69464C6.13721 15.7213 4.80011 15.2022 3.82966 14.2194C3.40582 13.791 3.06943 13.292 2.82388 12.7342C2.36136 11.9144 2.12085 10.945 2.12085 9.8732C2.12085 8.29736 2.63214 6.94327 3.60091 5.96215C4.56632 4.98271 5.90342 4.46191 7.46253 4.46191Z" fill="#8848ED"/>
<path d="M7.46249 5.22168C10.2141 5.22168 12.049 7.07976 12.049 9.88032C12.049 10.9253 11.79 11.8426 11.3123 12.5902L12.3719 13.4419C12.488 13.5326 12.488 13.6234 12.3972 13.7006L10.8078 15.2748C10.7052 15.3521 10.6261 15.3386 10.5488 15.2496L9.59345 14.0753C8.97283 14.3592 8.24962 14.5138 7.46249 14.5138C4.71092 14.5138 2.87598 12.6557 2.87598 9.88032C2.87598 7.07976 4.71092 5.22168 7.46249 5.22168ZM17.8398 8.04408C17.9205 8.04408 17.9962 8.08776 18.0365 8.15832C18.0769 8.22888 18.0769 8.31456 18.0365 8.38512L16.2453 11.515C16.205 11.5855 16.205 11.6712 16.2453 11.7418C16.2857 11.8123 16.3614 11.856 16.4421 11.856H17.754C17.8801 11.856 17.9827 11.9585 17.9827 12.0845V13.7191C17.9827 13.8451 17.8801 13.9476 17.754 13.9476H13.1389C13.0581 13.9476 12.9825 13.9039 12.9421 13.835C12.9017 13.7645 12.9 13.6788 12.9404 13.6082L14.6728 10.5439C14.7131 10.4734 14.7114 10.3877 14.6711 10.3171C14.6307 10.2466 14.555 10.2046 14.4743 10.2046H13.3928C13.2667 10.2046 13.1658 10.1038 13.1641 9.97776L13.1591 8.27424C13.1591 8.21376 13.1826 8.15496 13.2263 8.11296C13.2684 8.07096 13.3272 8.04576 13.3878 8.04576H17.8398V8.04408ZM7.46249 7.75176C6.35076 7.75176 5.61578 8.60352 5.61578 9.88032C5.61578 11.1571 6.35245 12.0089 7.46249 12.0089C7.59704 12.0089 7.7316 11.9971 7.86278 11.9702L7.47595 11.4931C7.39858 11.4024 7.39858 11.3251 7.4894 11.2344L8.32867 10.4078C8.41949 10.3171 8.4834 10.2919 8.57422 10.3692L9.1427 10.8346C9.25875 10.5506 9.31089 10.2281 9.31089 9.88032C9.31089 8.60352 8.57422 7.75176 7.46249 7.75176ZM8.14197 9.49056C8.17729 9.51744 8.19916 9.55944 8.20085 9.60312C8.20253 9.6468 8.1857 9.69048 8.15375 9.72072L6.9226 10.8984C6.89065 10.9286 6.84692 10.9438 6.80151 10.9404C6.7561 10.937 6.71741 10.9135 6.69219 10.8766C6.38104 10.4414 6.40459 9.86016 6.77124 9.50904C7.13789 9.15792 7.7215 9.16128 8.14197 9.49056Z" fill="white"/>
</svg>
